<svg xmlns="http://www.w3.org/2000/svg" width="167" height="51" viewBox="0 0 167 51" fill="none">
<rect y="0.5" width="167" height="50" rx="25" fill="white"/>
<path fill-rule="evenodd" clip-rule="evenodd" d="M82.21 18.4998H81.27V11.2598H82.21V18.4998ZM54.9 18.4998H57.36C58.3134 18.4998 59.1167 18.1881 59.77 17.5648C60.4234 16.9414 60.75 16.0764 60.75 14.9698C60.75 13.8564 60.4267 12.9848 59.78 12.3548C59.1334 11.7248 58.3334 11.4098 57.38 11.4098H54.9V18.4998ZM57.33 17.6298H55.88V12.2798H57.35C58.0434 12.2798 58.615 12.5131 59.065 12.9798C59.515 13.4464 59.74 14.1098 59.74 14.9698C59.74 15.8231 59.5117 16.4798 59.055 16.9398C58.5984 17.3998 58.0234 17.6298 57.33 17.6298ZM62.99 17.3598C63.2834 17.6598 63.64 17.8098 64.06 17.8098C64.48 17.8098 64.835 17.6581 65.125 17.3548C65.415 17.0514 65.56 16.6298 65.56 16.0898C65.56 15.5564 65.415 15.1381 65.125 14.8348C64.835 14.5314 64.48 14.3798 64.06 14.3798C63.64 14.3798 63.285 14.5314 62.995 14.8348C62.705 15.1381 62.56 15.5564 62.56 16.0898C62.56 16.6298 62.7034 17.0531 62.99 17.3598ZM64.06 13.5398C63.3467 13.5398 62.7567 13.7831 62.29 14.2698C61.83 14.7498 61.6 15.3564 61.6 16.0898C61.6 16.8298 61.83 17.4414 62.29 17.9248C62.75 18.4081 63.34 18.6498 64.06 18.6498C64.78 18.6498 65.37 18.4081 65.83 17.9248C66.29 17.4414 66.52 16.8298 66.52 16.0898C66.52 15.3564 66.2884 14.7481 65.825 14.2648C65.3617 13.7814 64.7734 13.5398 64.06 13.5398ZM70.43 13.6898H71.4L72.65 17.3098L73.71 13.6898H74.7L73.14 18.4998H72.17L70.89 14.8398L69.64 18.4998H68.65L67.07 13.6898H68.1L69.18 17.3098L70.43 13.6898ZM76.59 18.4998V15.7198C76.59 15.3398 76.6884 15.0248 76.885 14.7748C77.0817 14.5248 77.3567 14.3998 77.71 14.3998C78.4567 14.3998 78.83 14.8031 78.83 15.6098V18.4998H79.77V15.4498C79.77 14.8898 79.6217 14.4331 79.325 14.0798C79.0284 13.7264 78.6034 13.5498 78.05 13.5498C77.3834 13.5498 76.89 13.8264 76.57 14.3798V13.6898H75.65V18.4998H76.59ZM85.87 17.8098C85.45 17.8098 85.0934 17.6598 84.8 17.3598C84.5134 17.0531 84.37 16.6298 84.37 16.0898C84.37 15.5564 84.515 15.1381 84.805 14.8348C85.095 14.5314 85.45 14.3798 85.87 14.3798C86.29 14.3798 86.645 14.5314 86.935 14.8348C87.225 15.1381 87.37 15.5564 87.37 16.0898C87.37 16.6298 87.225 17.0514 86.935 17.3548C86.645 17.6581 86.29 17.8098 85.87 17.8098ZM84.1 14.2698C84.5667 13.7831 85.1567 13.5398 85.87 13.5398C86.5834 13.5398 87.1717 13.7814 87.635 14.2648C88.0984 14.7481 88.33 15.3564 88.33 16.0898C88.33 16.8298 88.1 17.4414 87.64 17.9248C87.18 18.4081 86.59 18.6498 85.87 18.6498C85.15 18.6498 84.56 18.4081 84.1 17.9248C83.64 17.4414 83.41 16.8298 83.41 16.0898C83.41 15.3564 83.64 14.7498 84.1 14.2698ZM89.63 16.2148C89.3634 16.4648 89.23 16.7964 89.23 17.2098C89.23 17.6031 89.38 17.9414 89.68 18.2248C89.98 18.5081 90.3667 18.6498 90.84 18.6498C91.2267 18.6498 91.5484 18.5698 91.805 18.4098C92.0617 18.2498 92.2567 18.0631 92.39 17.8498C92.39 18.0831 92.4067 18.2998 92.44 18.4998H93.36C93.32 18.2598 93.3 17.9964 93.3 17.7098V15.2998C93.3 14.7864 93.1367 14.3648 92.81 14.0348C92.4834 13.7048 91.98 13.5398 91.3 13.5398C90.78 13.5398 90.3334 13.6848 89.96 13.9748C89.5867 14.2648 89.3767 14.6398 89.33 15.0998L90.23 15.3098C90.2634 15.0164 90.3734 14.7814 90.56 14.6048C90.7467 14.4281 91 14.3398 91.32 14.3398C91.6667 14.3398 91.9267 14.4198 92.1 14.5798C92.2734 14.7398 92.36 14.9464 92.36 15.1998C92.36 15.4064 92.2367 15.5264 91.99 15.5598L90.69 15.7498C90.25 15.8098 89.8967 15.9648 89.63 16.2148ZM90.97 17.8598C91.39 17.8598 91.7267 17.7464 91.98 17.5198C92.2334 17.2931 92.36 16.9331 92.36 16.4398V16.2198L90.89 16.4398C90.6767 16.4731 90.5067 16.5498 90.38 16.6698C90.2534 16.7898 90.19 16.9531 90.19 17.1598C90.19 17.3464 90.2617 17.5098 90.405 17.6498C90.5484 17.7898 90.7367 17.8598 90.97 17.8598ZM95.695 17.3198C95.445 16.9998 95.32 16.5864 95.32 16.0798C95.32 15.5798 95.45 15.1731 95.71 14.8598C95.97 14.5464 96.3134 14.3898 96.74 14.3898C97.1667 14.3898 97.5034 14.5431 97.75 14.8498C97.9967 15.1564 98.12 15.5598 98.12 16.0598C98.12 16.5664 97.9934 16.9831 97.74 17.3098C97.4867 17.6364 97.15 17.7998 96.73 17.7998C96.29 17.7998 95.945 17.6398 95.695 17.3198ZM98.1331 18.0291L98.13 17.7698C98.0034 18.0164 97.8117 18.2214 97.555 18.3848C97.2984 18.5481 96.9934 18.6298 96.64 18.6298C95.9534 18.6298 95.4017 18.3881 94.985 17.9048C94.5684 17.4214 94.36 16.8131 94.36 16.0798C94.36 15.3798 94.5734 14.7848 95 14.2948C95.4267 13.8048 95.9734 13.5598 96.64 13.5598C97.0334 13.5598 97.3534 13.6381 97.6 13.7948C97.8467 13.9514 98.0167 14.1431 98.11 14.3698V11.2598H99.04V17.6098C99.04 17.9364 99.0567 18.2331 99.09 18.4998H98.18C98.155 18.3598 98.1394 18.2029 98.1331 18.0291ZM105.2 17.8098C104.78 17.8098 104.423 17.6598 104.13 17.3598C103.843 17.0531 103.7 16.6298 103.7 16.0898C103.7 15.5564 103.845 15.1381 104.135 14.8348C104.425 14.5314 104.78 14.3798 105.2 14.3798C105.62 14.3798 105.975 14.5314 106.265 14.8348C106.555 15.1381 106.7 15.5564 106.7 16.0898C106.7 16.6298 106.555 17.0514 106.265 17.3548C105.975 17.6581 105.62 17.8098 105.2 17.8098ZM103.43 14.2698C103.897 13.7831 104.487 13.5398 105.2 13.5398C105.913 13.5398 106.502 13.7814 106.965 14.2648C107.428 14.7481 107.66 15.3564 107.66 16.0898C107.66 16.8298 107.43 17.4414 106.97 17.9248C106.51 18.4081 105.92 18.6498 105.2 18.6498C104.48 18.6498 103.89 18.4081 103.43 17.9248C102.97 17.4414 102.74 16.8298 102.74 16.0898C102.74 15.3564 102.97 14.7498 103.43 14.2698ZM109.8 18.4998V15.7198C109.8 15.3398 109.898 15.0248 110.095 14.7748C110.292 14.5248 110.567 14.3998 110.92 14.3998C111.667 14.3998 112.04 14.8031 112.04 15.6098V18.4998H112.98V15.4498C112.98 14.8898 112.832 14.4331 112.535 14.0798C112.238 13.7264 111.813 13.5498 111.26 13.5498C110.593 13.5498 110.1 13.8264 109.78 14.3798V13.6898H108.86V18.4998H109.8ZM118.24 12.1698V13.6898H119.28V14.5398H118.24V17.0398C118.24 17.2664 118.292 17.4331 118.395 17.5398C118.498 17.6464 118.67 17.6998 118.91 17.6998C119.05 17.6998 119.173 17.6864 119.28 17.6598V18.4598C119.12 18.5198 118.907 18.5498 118.64 18.5498C118.227 18.5498 117.9 18.4298 117.66 18.1898C117.42 17.9498 117.3 17.6131 117.3 17.1798V14.5398H116.38V13.6898H116.64C116.887 13.6898 117.072 13.6214 117.195 13.4848C117.318 13.3481 117.38 13.1698 117.38 12.9498V12.1698H118.24ZM121.47 18.4998V15.6698C121.483 15.2964 121.587 14.9914 121.78 14.7548C121.973 14.5181 122.243 14.3998 122.59 14.3998C123.337 14.3998 123.71 14.8031 123.71 15.6098V18.4998H124.65V15.4498C124.65 14.8898 124.502 14.4331 124.205 14.0798C123.908 13.7264 123.483 13.5498 122.93 13.5498C122.277 13.5498 121.79 13.7831 121.47 14.2498V11.2598H120.53V18.4998H121.47ZM126.76 15.5998H129.39C129.377 15.2398 129.257 14.9448 129.03 14.7148C128.803 14.4848 128.483 14.3698 128.07 14.3698C127.697 14.3698 127.39 14.4914 127.15 14.7348C126.91 14.9781 126.78 15.2664 126.76 15.5998ZM130.34 17.1298L129.53 16.8498C129.317 17.4964 128.867 17.8198 128.18 17.8198C127.773 17.8198 127.432 17.6831 127.155 17.4098C126.878 17.1364 126.737 16.7864 126.73 16.3598H130.35C130.363 16.2798 130.37 16.1798 130.37 16.0598C130.37 15.2931 130.167 14.6814 129.76 14.2248C129.353 13.7681 128.787 13.5398 128.06 13.5398C127.433 13.5398 126.893 13.7798 126.44 14.2598C125.987 14.7398 125.76 15.3464 125.76 16.0798C125.76 16.8664 125.995 17.4914 126.465 17.9548C126.935 18.4181 127.507 18.6498 128.18 18.6498C128.72 18.6498 129.18 18.5081 129.56 18.2248C129.94 17.9414 130.2 17.5764 130.34 17.1298Z" fill="black"/>
<path fill-rule="evenodd" clip-rule="evenodd" d="M63.12 37.5H65.216L60.8 26.156H58.576L54.16 37.5H56.192L57.248 34.652H62.048L63.12 37.5ZM59.648 28.236L61.376 32.876H57.92L59.648 28.236ZM68.416 40.54V36.62C68.816 37.212 69.664 37.692 70.784 37.692C73.024 37.692 74.448 35.932 74.448 33.596C74.448 31.292 73.152 29.532 70.848 29.532C69.648 29.532 68.752 30.092 68.368 30.764V29.708H66.576V40.54H68.416ZM72.592 33.596C72.592 35.084 71.728 36.044 70.496 36.044C69.28 36.044 68.4 35.084 68.4 33.596C68.4 32.14 69.28 31.18 70.496 31.18C71.744 31.18 72.592 32.14 72.592 33.596ZM78.08 40.54V36.62C78.48 37.212 79.328 37.692 80.448 37.692C82.688 37.692 84.112 35.932 84.112 33.596C84.112 31.292 82.816 29.532 80.512 29.532C79.312 29.532 78.416 30.092 78.032 30.764V29.708H76.24V40.54H78.08ZM82.256 33.596C82.256 35.084 81.392 36.044 80.16 36.044C78.944 36.044 78.064 35.084 78.064 33.596C78.064 32.14 78.944 31.18 80.16 31.18C81.408 31.18 82.256 32.14 82.256 33.596ZM97.488 28.812C97.232 27.548 96.192 25.916 93.52 25.916C91.408 25.916 89.664 27.484 89.664 29.388C89.664 31.084 90.816 32.22 92.544 32.572L94.144 32.908C95.12 33.116 95.664 33.708 95.664 34.444C95.664 35.324 94.96 36.012 93.6 36.012C91.968 36.012 91.12 34.924 91.008 33.74L89.216 34.252C89.392 35.884 90.72 37.74 93.6 37.74C96.192 37.74 97.616 36.06 97.616 34.3C97.616 32.7 96.544 31.436 94.544 31.036L92.912 30.7C92.032 30.508 91.584 29.964 91.584 29.244C91.584 28.38 92.384 27.612 93.536 27.612C95.056 27.612 95.648 28.652 95.76 29.356L97.488 28.812ZM101.808 27.324H100.128V28.492C100.128 29.18 99.76 29.708 98.928 29.708H98.528V31.356H99.968V35.276C99.968 36.732 100.864 37.596 102.304 37.596C102.976 37.596 103.328 37.468 103.44 37.42V35.884L103.235 35.9159C103.108 35.9323 102.946 35.948 102.8 35.948C102.112 35.948 101.808 35.66 101.808 34.972V31.356H103.424V29.708H101.808V27.324ZM108.72 36.076C107.584 36.076 106.544 35.212 106.544 33.596C106.544 31.98 107.584 31.148 108.72 31.148C109.872 31.148 110.896 31.98 110.896 33.596C110.896 35.228 109.872 36.076 108.72 36.076ZM108.72 29.468C106.4 29.468 104.688 31.212 104.688 33.596C104.688 35.996 106.4 37.74 108.72 37.74C111.056 37.74 112.768 35.996 112.768 33.596C112.768 31.212 111.056 29.468 108.72 29.468ZM119.12 29.66C119.04 29.644 118.848 29.612 118.624 29.612C117.6 29.612 116.736 30.108 116.368 30.956V29.708H114.56V37.5H116.416V33.788C116.416 32.332 117.072 31.5 118.512 31.5C118.704 31.5 118.912 31.516 119.12 31.548V29.66ZM121.936 32.748C122 31.916 122.672 31.02 123.84 31.02C125.12 31.02 125.728 31.836 125.76 32.748H121.936ZM125.968 34.78L127.536 35.276C127.12 36.636 125.888 37.74 124.016 37.74C121.904 37.74 120.032 36.204 120.032 33.564C120.032 31.1 121.856 29.468 123.824 29.468C126.224 29.468 127.632 31.052 127.632 33.516C127.632 33.82 127.6 34.076 127.584 34.108H121.888C121.936 35.292 122.864 36.14 124.016 36.14C125.136 36.14 125.712 35.548 125.968 34.78Z" fill="black"/>
<path fill-rule="evenodd" clip-rule="evenodd" d="M31.3938 15.0376C32.263 14.1005 32.8511 12.7986 32.6906 11.5C31.4371 11.5451 29.9185 12.2405 29.0204 13.1773C28.2133 14.0075 27.5079 15.3334 27.6963 16.6059C29.0955 16.7022 30.5228 15.9737 31.3938 15.0376ZM34.0616 24.002C34.0346 21.0912 36.3495 19.6944 36.4534 19.6258C35.1524 17.6502 33.125 17.3795 32.4037 17.3493C30.6791 17.1669 29.0385 18.402 28.1625 18.402C27.2897 18.402 25.9395 17.3737 24.5086 17.4009C22.628 17.4318 20.8947 18.535 19.9278 20.2834C17.974 23.8 19.4266 29.0109 21.3313 31.8629C22.2618 33.2597 23.3706 34.8261 24.8264 34.769C26.2303 34.7131 26.7604 33.8279 28.4561 33.8279C30.1509 33.8279 30.6278 34.769 32.1111 34.7407C33.6204 34.7131 34.5769 33.3174 35.5009 31.9171C36.5685 30.2983 37.008 28.73 37.0347 28.6505C37.0008 28.633 34.0923 27.479 34.0616 24.002Z" fill="black"/>
</svg>