<svg xmlns="http://www.w3.org/2000/svg" width="167" height="51" viewBox="0 0 167 51" fill="none">
<rect y="0.5" width="167" height="50" rx="25" fill="black"/>
<path fill-rule="evenodd" clip-rule="evenodd" d="M73.71 12.8704C73.71 13.0571 73.7733 13.2171 73.9 13.3504C74.0333 13.4771 74.1933 13.5404 74.38 13.5404C74.5667 13.5404 74.7267 13.4754 74.86 13.3454C74.9933 13.2154 75.06 13.0571 75.06 12.8704C75.06 12.6771 74.9933 12.5154 74.86 12.3854C74.7267 12.2554 74.5667 12.1904 74.38 12.1904C74.1933 12.1904 74.035 12.2571 73.905 12.3904C73.775 12.5238 73.71 12.6838 73.71 12.8704ZM60.25 19.5004H61.04V16.0304H57.65V16.9104H60.11C60.0967 17.1104 60.0483 17.3104 59.965 17.5104C59.8817 17.7104 59.7583 17.9088 59.595 18.1054C59.4317 18.3021 59.205 18.4604 58.915 18.5804C58.625 18.7004 58.2933 18.7604 57.92 18.7604C57.24 18.7604 56.6583 18.5154 56.175 18.0254C55.6917 17.5354 55.45 16.8438 55.45 15.9504C55.45 15.0638 55.6967 14.3771 56.19 13.8904C56.6833 13.4038 57.2733 13.1604 57.96 13.1604C58.5067 13.1604 58.9783 13.3021 59.375 13.5854C59.7717 13.8688 60.05 14.2671 60.21 14.7804L61.1 14.4004C60.8933 13.7538 60.5083 13.2354 59.945 12.8454C59.3817 12.4554 58.72 12.2604 57.96 12.2604C57.36 12.2604 56.7983 12.3971 56.275 12.6704C55.7517 12.9438 55.3167 13.3671 54.97 13.9404C54.6233 14.5138 54.45 15.1838 54.45 15.9504C54.45 16.7171 54.615 17.3871 54.945 17.9604C55.275 18.5338 55.6967 18.9588 56.21 19.2354C56.7233 19.5121 57.2833 19.6504 57.89 19.6504C58.4433 19.6504 58.9167 19.5371 59.31 19.3104C59.7033 19.0838 59.9867 18.8138 60.16 18.5004L60.25 19.5004ZM65.69 16.6004H63.06C63.08 16.2671 63.21 15.9788 63.45 15.7354C63.69 15.4921 63.9967 15.3704 64.37 15.3704C64.7833 15.3704 65.1033 15.4854 65.33 15.7154C65.5567 15.9454 65.6767 16.2404 65.69 16.6004ZM65.83 17.8504L66.64 18.1304C66.5 18.5771 66.24 18.9421 65.86 19.2254C65.48 19.5088 65.02 19.6504 64.48 19.6504C63.8067 19.6504 63.235 19.4188 62.765 18.9554C62.295 18.4921 62.06 17.8671 62.06 17.0804C62.06 16.3471 62.2867 15.7404 62.74 15.2604C63.1933 14.7804 63.7333 14.5404 64.36 14.5404C65.0867 14.5404 65.6533 14.7688 66.06 15.2254C66.4667 15.6821 66.67 16.2938 66.67 17.0604C66.67 17.1804 66.6633 17.2804 66.65 17.3604H63.03C63.0367 17.7871 63.1783 18.1371 63.455 18.4104C63.7317 18.6838 64.0733 18.8204 64.48 18.8204C65.1667 18.8204 65.6167 18.4971 65.83 17.8504ZM69.13 14.6904V13.1704H68.27V13.9504C68.27 14.1704 68.2083 14.3488 68.085 14.4854C67.9617 14.6221 67.7767 14.6904 67.53 14.6904H67.27V15.5404H68.19V18.1804C68.19 18.6138 68.31 18.9504 68.55 19.1904C68.79 19.4304 69.1167 19.5504 69.53 19.5504C69.7967 19.5504 70.01 19.5204 70.17 19.4604V18.6604C70.0633 18.6871 69.94 18.7004 69.8 18.7004C69.56 18.7004 69.3883 18.6471 69.285 18.5404C69.1817 18.4338 69.13 18.2671 69.13 18.0404V15.5404H70.17V14.6904H69.13ZM74.85 19.5004H73.92V14.6904H74.85V19.5004ZM77.71 13.1704V14.6904H78.75V15.5404H77.71V18.0404C77.71 18.2671 77.7617 18.4338 77.865 18.5404C77.9683 18.6471 78.14 18.7004 78.38 18.7004C78.52 18.7004 78.6433 18.6871 78.75 18.6604V19.4604C78.59 19.5204 78.3767 19.5504 78.11 19.5504C77.6967 19.5504 77.37 19.4304 77.13 19.1904C76.89 18.9504 76.77 18.6138 76.77 18.1804V15.5404H75.85V14.6904H76.11C76.3567 14.6904 76.5417 14.6221 76.665 14.4854C76.7883 14.3488 76.85 14.1704 76.85 13.9504V13.1704H77.71ZM84.56 18.8104C84.14 18.8104 83.7833 18.6604 83.49 18.3604C83.2033 18.0538 83.06 17.6304 83.06 17.0904C83.06 16.5571 83.205 16.1388 83.495 15.8354C83.785 15.5321 84.14 15.3804 84.56 15.3804C84.98 15.3804 85.335 15.5321 85.625 15.8354C85.915 16.1388 86.06 16.5571 86.06 17.0904C86.06 17.6304 85.915 18.0521 85.625 18.3554C85.335 18.6588 84.98 18.8104 84.56 18.8104ZM82.79 15.2704C83.2567 14.7838 83.8467 14.5404 84.56 14.5404C85.2733 14.5404 85.8617 14.7821 86.325 15.2654C86.7883 15.7488 87.02 16.3571 87.02 17.0904C87.02 17.8304 86.79 18.4421 86.33 18.9254C85.87 19.4088 85.28 19.6504 84.56 19.6504C83.84 19.6504 83.25 19.4088 82.79 18.9254C82.33 18.4421 82.1 17.8304 82.1 17.0904C82.1 16.3571 82.33 15.7504 82.79 15.2704ZM89.16 19.5004V16.7204C89.16 16.3404 89.2583 16.0254 89.455 15.7754C89.6517 15.5254 89.9267 15.4004 90.28 15.4004C91.0267 15.4004 91.4 15.8038 91.4 16.6104V19.5004H92.34V16.4504C92.34 15.8904 92.1917 15.4338 91.895 15.0804C91.5983 14.7271 91.1733 14.5504 90.62 14.5504C89.9533 14.5504 89.46 14.8271 89.14 15.3804V14.6904H88.22V19.5004H89.16Z" fill="white"/>
<path fill-rule="evenodd" clip-rule="evenodd" d="M65.424 30.756V36.5H63.872L63.728 35.06C63.232 35.892 62.064 36.74 60.256 36.74C57.296 36.74 54.672 34.564 54.672 30.82C54.672 27.092 57.44 24.916 60.384 24.916C63.136 24.916 64.896 26.5 65.504 28.372L63.696 29.06C63.312 27.78 62.192 26.692 60.384 26.692C58.544 26.692 56.624 28.004 56.624 30.82C56.624 33.588 58.416 34.98 60.368 34.98C62.656 34.98 63.52 33.412 63.616 32.436H59.872V30.756H65.424ZM68.832 32.596C68.832 34.212 69.872 35.076 71.008 35.076C72.16 35.076 73.184 34.228 73.184 32.596C73.184 30.98 72.16 30.148 71.008 30.148C69.872 30.148 68.832 30.98 68.832 32.596ZM71.008 28.468C68.688 28.468 66.976 30.212 66.976 32.596C66.976 34.996 68.688 36.74 71.008 36.74C73.344 36.74 75.056 34.996 75.056 32.596C75.056 30.212 73.344 28.468 71.008 28.468ZM78.096 32.596C78.096 34.212 79.136 35.076 80.272 35.076C81.424 35.076 82.448 34.228 82.448 32.596C82.448 30.98 81.424 30.148 80.272 30.148C79.136 30.148 78.096 30.98 78.096 32.596ZM80.272 28.468C77.952 28.468 76.24 30.212 76.24 32.596C76.24 34.996 77.952 36.74 80.272 36.74C82.608 36.74 84.32 34.996 84.32 32.596C84.32 30.212 82.608 28.468 80.272 28.468ZM89.264 39.78C87.2 39.78 85.76 38.5 85.552 36.932L87.264 36.484C87.392 37.444 88.144 38.164 89.216 38.164C90.688 38.164 91.424 37.412 91.424 35.828V35.012C91.088 35.62 90.304 36.148 89.168 36.148C87.088 36.148 85.568 34.548 85.568 32.356C85.568 30.276 87.024 28.564 89.168 28.564C90.384 28.564 91.136 29.06 91.472 29.7V28.708H93.264V35.764C93.264 37.844 92.192 39.78 89.264 39.78ZM89.472 34.564C88.256 34.564 87.44 33.716 87.44 32.356C87.44 31.028 88.288 30.164 89.472 30.164C90.624 30.164 91.472 31.028 91.472 32.356C91.472 33.7 90.656 34.564 89.472 34.564ZM97.392 24.916V36.5H95.536V24.916H97.392ZM101.088 31.748C101.152 30.916 101.824 30.02 102.992 30.02C104.272 30.02 104.88 30.836 104.912 31.748H101.088ZM103.168 35.14C104.288 35.14 104.864 34.548 105.12 33.78L106.688 34.276C106.272 35.636 105.04 36.74 103.168 36.74C101.056 36.74 99.184 35.204 99.184 32.564C99.184 30.1 101.008 28.468 102.976 28.468C105.376 28.468 106.784 30.052 106.784 32.516C106.784 32.82 106.752 33.076 106.736 33.108H101.04C101.088 34.292 102.016 35.14 103.168 35.14ZM114.608 30.372V26.852H116.608C117.824 26.852 118.56 27.54 118.56 28.628C118.56 29.7 117.824 30.372 116.608 30.372H114.608ZM120.512 28.612C120.512 30.612 119.072 32.068 116.896 32.068H114.608V36.5H112.688V25.156H116.896C119.072 25.156 120.512 26.628 120.512 28.612ZM124.016 36.5V24.916H122.16V36.5H124.016ZM128.576 36.74C126.944 36.74 125.936 35.62 125.936 34.388C125.936 32.996 126.96 32.228 128.288 32.036L130.288 31.732C130.736 31.668 130.864 31.444 130.864 31.172C130.864 30.516 130.416 29.988 129.392 29.988C128.416 29.988 127.872 30.612 127.792 31.396L126.096 31.012C126.24 29.668 127.456 28.468 129.376 28.468C131.776 28.468 132.688 29.828 132.688 31.38L132.69 35.4229C132.697 35.8097 132.727 36.1107 132.752 36.2973L132.784 36.5H131.056C131.04 36.452 130.976 36.132 130.976 35.508C130.608 36.1 129.84 36.74 128.576 36.74ZM128.928 35.284C128.192 35.284 127.792 34.804 127.792 34.276C127.792 33.636 128.256 33.316 128.832 33.22L130.864 32.916V33.268C130.864 34.788 129.968 35.284 128.928 35.284ZM135.312 39.652H137.296L142.256 28.708H140.288L138.192 33.636L135.952 28.708H133.856L137.184 35.572L135.312 39.652Z" fill="white"/>
<path d="M20.0958 14.6289C20.0395 14.8295 20 15.0448 20 15.2915V35.606C20 35.8494 20.038 36.0635 20.0932 36.2615L31.4206 25.4597L20.0958 14.6289Z" fill="#48A0DC"/>
<path d="M22.6161 13.8403C22.0889 13.5167 21.5691 13.4357 21.1302 13.5474L32.5049 24.4262L35.8415 21.2451L22.6161 13.8403Z" fill="#88C057"/>
<path d="M40.7173 23.9747L37.1868 21.998L33.5714 25.4458L37.2547 28.9693L40.6901 27.0707C42.3654 26.1095 41.7535 24.5608 40.7173 23.9747Z" fill="#FFCC66"/>
<path d="M32.4867 26.4795L21.0978 37.3387C21.5434 37.4644 22.0751 37.3897 22.6158 37.0579L35.8825 29.727L32.4867 26.4795Z" fill="#ED7161"/>
</svg>